<?xml version="1.0" standalone="no"?>
<!DOCTYPE svg PUBLIC "-//W3C//DTD SVG 20010904//EN"
 "http://www.w3.org/TR/2001/REC-SVG-20010904/DTD/svg10.dtd">
<svg version="1.0" xmlns="http://www.w3.org/2000/svg"
 width="512.000000pt" height="512.000000pt" viewBox="0 0 512.000000 512.000000"
 preserveAspectRatio="xMidYMid meet">

<g transform="translate(0.000000,512.000000) scale(0.100000,-0.100000)"
fill="#000000" stroke="none">
<path d="M2625 4946 c-172 -39 -330 -165 -397 -313 -10 -24 -22 -43 -26 -43
-4 0 -179 39 -387 86 -306 69 -388 84 -425 79 -103 -15 -189 -76 -238 -170
-36 -69 -37 -188 -3 -255 29 -57 85 -116 134 -141 21 -11 167 -49 325 -85 158
-36 289 -68 291 -70 2 -2 -296 -4 -663 -4 -408 0 -674 -4 -685 -10 -46 -24
-51 37 153 -1939 l193 -1874 27 -24 27 -23 1185 0 1185 0 24 25 c14 13 25 28
25 32 0 36 350 3396 354 3400 3 3 130 -23 282 -57 224 -51 286 -62 330 -57
105 11 198 77 245 175 17 36 23 65 23 122 1 121 -56 215 -164 270 -22 11 -201
57 -398 101 -196 44 -364 82 -372 85 -12 3 -15 14 -12 38 2 19 -4 72 -13 118
-36 179 -150 330 -308 408 -62 30 -129 51 -282 86 -224 51 -335 62 -430 40z
m348 -187 c100 -22 209 -49 242 -60 146 -47 258 -186 280 -346 6 -44 4 -53 -8
-53 -8 0 -143 29 -299 65 -155 35 -402 91 -546 124 -145 33 -266 62 -269 65
-10 10 46 92 90 133 52 48 90 69 167 94 83 27 144 23 343 -22z m-114 -484
c789 -179 1451 -330 1472 -335 79 -21 128 -93 115 -165 -9 -48 -63 -102 -109
-110 -30 -6 -237 38 -995 210 -526 119 -1184 268 -1461 331 -278 63 -518 122
-534 132 -93 54 -85 189 13 240 24 12 49 22 55 22 6 0 656 -146 1444 -325z
m-1827 -677 c3 -271 3 -273 29 -328 33 -69 97 -133 169 -168 46 -22 69 -26
140 -26 71 -1 94 4 142 26 111 51 182 153 198 285 11 85 26 115 73 143 61 37
143 17 184 -47 16 -24 19 -59 23 -303 5 -275 5 -275 32 -331 34 -68 105 -142
167 -174 200 -101 439 -8 522 202 23 57 23 66 29 514 l5 455 403 -91 c221 -51
405 -95 408 -98 5 -5 -268 -2703 -281 -2784 l-6 -33 -1139 0 c-892 0 -1140 3
-1140 12 0 18 -298 2924 -305 2976 l-6 42 175 0 175 0 3 -272z m1546 -185 c-3
-451 -3 -459 -25 -500 -80 -148 -278 -160 -370 -22 l-28 42 -5 276 -5 276 -28
57 c-30 61 -74 105 -140 140 -34 18 -58 23 -127 23 -76 0 -91 -3 -139 -30 -94
-52 -142 -130 -159 -258 -12 -92 -42 -139 -106 -168 -50 -23 -95 -24 -143 -4
-48 20 -71 41 -94 87 -17 34 -19 62 -19 288 l0 250 696 0 695 0 -3 -457z m661
-2895 c-10 -90 -18 -171 -18 -181 -1 -16 -58 -17 -1088 -15 l-1088 3 -17 160
c-9 88 -17 168 -17 178 -1 16 59 17 1122 17 l1123 0 -17 -162z"/>
</g>
</svg>
