<?xml version="1.0" standalone="no"?>
<!DOCTYPE svg PUBLIC "-//W3C//DTD SVG 20010904//EN"
 "http://www.w3.org/TR/2001/REC-SVG-20010904/DTD/svg10.dtd">
<svg version="1.0" xmlns="http://www.w3.org/2000/svg"
 width="2000.000000pt" height="1500.000000pt" viewBox="0 0 2000.000000 1500.000000"
 preserveAspectRatio="xMidYMid meet">

<g transform="translate(0.000000,1500.000000) scale(0.100000,-0.100000)"
fill="#000000" stroke="none">
<path d="M13933 9978 c-12 -6 -26 -22 -32 -37 -6 -14 -126 -480 -267 -1035
-241 -945 -257 -1010 -243 -1035 l15 -26 155 -3 c137 -2 159 0 177 15 17 14
36 78 87 278 36 143 69 267 72 275 3 8 41 -106 84 -255 65 -221 83 -274 104
-292 25 -22 35 -23 184 -23 140 0 160 2 174 18 10 10 17 22 17 27 0 5 -54 177
-121 382 -108 334 -120 376 -107 391 8 9 131 150 273 312 142 162 264 302 270
310 23 28 26 57 10 74 -14 13 -44 16 -194 16 -165 0 -180 -2 -205 -21 -14 -11
-100 -114 -192 -230 -91 -115 -167 -209 -170 -209 -2 0 -1 6 1 13 16 44 255
1001 255 1021 0 15 -8 30 -19 36 -26 13 -299 12 -328 -2z"/>
<path d="M15178 9979 c-10 -5 -22 -18 -28 -29 -16 -30 -520 -2013 -520 -2046
0 -59 19 -65 190 -62 150 3 153 3 171 28 11 15 124 440 280 1053 253 993 261
1028 244 1047 -17 18 -31 20 -169 20 -83 0 -159 -5 -168 -11z"/>
<path d="M12410 9938 c-83 -23 -140 -99 -140 -187 0 -61 13 -97 48 -135 79
-84 234 -89 322 -10 78 71 89 174 27 256 -59 77 -154 106 -257 76z"/>
<path d="M10161 9894 c-199 -53 -366 -222 -506 -509 -220 -451 -286 -1068
-144 -1347 29 -56 101 -131 153 -159 43 -22 43 -24 29 -46 -24 -36 -63 -231
-52 -259 10 -28 24 -29 99 -9 91 25 184 19 291 -16 82 -27 103 -30 164 -25 88
7 166 30 190 56 18 20 54 169 55 226 0 48 -21 60 -78 45 -65 -17 -179 -24
-227 -14 l-40 9 65 35 c82 43 183 138 249 234 179 258 325 767 338 1175 12
365 -70 530 -298 601 -74 23 -209 24 -288 3z m173 -397 c57 -77 15 -434 -99
-832 -104 -362 -225 -541 -335 -495 -114 47 -74 489 90 981 91 273 173 383
284 376 30 -1 44 -9 60 -30z"/>
<path d="M3916 9868 c-22 -20 -53 -133 -271 -988 -135 -531 -245 -975 -245
-986 0 -12 8 -28 18 -37 17 -15 65 -17 486 -17 l468 0 27 28 c21 21 32 49 50
135 12 60 20 119 17 131 -10 42 -40 46 -332 46 -258 0 -275 1 -270 18 16 50
416 1629 416 1640 0 7 -9 21 -20 32 -18 18 -33 20 -169 20 -141 0 -151 -1
-175 -22z"/>
<path d="M5164 9369 c-64 -8 -172 -64 -241 -124 -100 -88 -197 -287 -283 -580
-59 -203 -83 -345 -83 -500 0 -157 12 -194 85 -260 55 -50 184 -105 244 -105
87 0 343 195 439 335 36 52 37 55 22 78 -17 26 -164 117 -188 117 -8 0 -39
-25 -69 -56 -67 -69 -127 -114 -151 -114 -25 0 -42 36 -35 74 5 27 16 36 79
68 230 114 460 390 522 626 19 77 19 186 -1 245 -44 128 -193 215 -340 196z
m44 -347 c5 -116 -58 -268 -156 -374 -84 -90 -84 -89 -26 113 65 230 115 333
158 327 18 -3 21 -10 24 -66z"/>
<path d="M6423 9366 c-12 -9 -24 -30 -28 -47 -4 -16 -10 -28 -13 -27 -110 59
-126 63 -232 63 -94 0 -111 -3 -161 -28 -131 -64 -224 -218 -344 -567 -90
-263 -146 -533 -131 -634 15 -96 93 -208 185 -268 88 -56 166 -29 271 94 29
35 59 69 65 76 10 11 20 -5 50 -82 51 -127 58 -133 137 -117 119 24 245 105
357 227 89 97 123 152 110 176 -11 21 -154 118 -173 118 -17 0 -39 -20 -66
-58 -12 -18 -24 -31 -27 -29 -2 3 63 229 145 503 82 275 152 513 156 530 5 23
2 37 -13 55 -18 23 -26 24 -143 27 -99 2 -127 0 -145 -12z m-115 -315 c11 -7
10 -22 -8 -82 -77 -258 -252 -608 -341 -684 -70 -58 -75 -19 -24 180 55 215
159 479 222 563 22 30 28 32 81 32 31 0 63 -4 70 -9z"/>
<path d="M7581 9370 c-39 -9 -101 -68 -174 -162 -28 -37 -53 -66 -54 -64 -2 2
5 37 17 77 26 94 26 125 -1 139 -13 7 -74 10 -171 8 -137 -3 -151 -5 -166 -24
-10 -11 -101 -341 -207 -743 -144 -552 -186 -727 -178 -739 9 -14 33 -17 159
-20 166 -3 189 0 203 27 9 16 241 882 241 900 0 3 9 -8 20 -25 33 -52 61 -57
205 -44 69 6 132 13 140 16 27 11 24 35 -10 79 -49 65 -53 102 -20 163 28 52
219 282 234 282 14 0 61 75 61 98 0 12 -9 26 -19 32 -23 12 -230 12 -280 0z"/>
<path d="M13139 9365 c-134 -49 -299 -227 -404 -435 -130 -259 -205 -572 -184
-768 13 -125 35 -179 94 -231 47 -41 161 -98 234 -117 51 -13 64 -13 99 -1
107 37 352 257 352 316 0 33 -31 64 -119 120 -78 51 -94 47 -199 -43 -55 -47
-96 -75 -103 -70 -30 18 11 299 72 481 46 138 160 363 204 402 42 37 47 36
152 -16 45 -22 79 -33 91 -29 30 10 182 183 182 207 0 55 -90 124 -223 170
-91 32 -185 37 -248 14z"/>
<path d="M8024 9355 c-12 -8 -26 -27 -32 -42 -6 -15 -95 -342 -198 -727 -155
-583 -184 -702 -175 -722 10 -23 14 -24 130 -24 111 0 121 2 148 24 16 13 67
97 115 187 47 90 129 245 181 345 169 321 237 417 237 337 0 -15 -50 -210
-110 -433 -61 -223 -109 -416 -108 -430 l3 -25 147 -3 c131 -2 150 0 165 15
20 20 363 1304 370 1383 8 97 -41 130 -192 130 -179 0 -206 -18 -357 -228 -60
-84 -112 -152 -114 -149 -2 2 19 70 46 152 28 82 50 159 50 172 0 42 -34 53
-165 53 -90 0 -126 -4 -141 -15z"/>
<path d="M11060 9352 c-24 -19 -59 -127 -163 -502 -149 -535 -180 -667 -181
-775 -1 -111 17 -162 70 -204 62 -49 172 -52 249 -7 55 33 83 65 201 235 54
77 99 139 100 138 2 -1 -13 -56 -32 -122 -66 -226 -66 -226 -49 -252 15 -22
21 -23 141 -23 119 0 126 1 147 24 17 18 66 188 210 727 103 387 187 714 187
726 0 44 -23 53 -139 53 -95 0 -112 -3 -135 -21 -17 -13 -66 -101 -132 -232
-155 -312 -314 -604 -351 -646 -26 -29 -34 -33 -42 -21 -5 8 -7 28 -5 45 11
63 86 329 159 564 41 134 75 254 75 265 0 41 -17 46 -156 46 -111 0 -135 -3
-154 -18z"/>
<path d="M12225 9348 c-23 -21 -46 -100 -210 -723 -101 -385 -186 -712 -190
-726 -4 -18 -1 -31 10 -43 25 -25 313 -24 344 2 18 14 57 153 211 740 195 742
196 750 154 766 -8 3 -78 6 -154 6 -130 0 -141 -1 -165 -22z"/>
<path d="M15713 9355 c-14 -10 -31 -44 -47 -98 -45 -147 -123 -426 -206 -736
-78 -288 -82 -309 -78 -385 5 -87 28 -147 77 -199 45 -49 92 -67 176 -67 116
0 143 20 249 188 32 51 60 92 62 92 1 0 -6 -30 -17 -67 -88 -310 -126 -429
-141 -447 l-17 -21 -154 80 c-141 72 -157 78 -180 68 -34 -16 -147 -168 -147
-197 0 -31 12 -40 196 -144 198 -113 220 -122 287 -122 98 0 245 96 299 196
14 27 45 105 67 174 49 151 461 1626 461 1651 0 37 -38 49 -151 49 -93 0 -110
-3 -133 -21 -17 -13 -63 -94 -122 -213 -53 -105 -148 -289 -212 -409 -150
-281 -192 -333 -192 -239 0 41 30 150 151 548 81 270 91 317 63 328 -9 3 -73
6 -143 6 -97 0 -132 -4 -148 -15z"/>
<path d="M16107 5855 c-91 -96 -105 -115 -85 -115 16 0 52 29 117 94 l94 95
91 -96 c71 -75 96 -94 114 -92 20 4 10 17 -84 117 -58 61 -113 112 -122 112
-9 0 -66 -52 -125 -115z"/>
<path d="M6810 5145 c0 -808 0 -815 20 -815 20 0 20 7 20 513 0 564 1 574 61
656 47 66 101 86 229 86 97 0 109 -2 152 -27 36 -22 53 -41 75 -85 l28 -58 3
-542 c3 -535 3 -543 23 -543 20 0 20 6 16 553 -3 615 -2 600 -72 673 -56 58
-126 78 -254 72 -113 -6 -156 -24 -219 -92 l-42 -46 0 235 c0 228 -1 235 -20
235 -20 0 -20 -7 -20 -815z"/>
<path d="M9660 5145 c0 -808 0 -815 20 -815 20 0 20 7 20 523 0 576 0 576 61
650 45 54 99 78 189 84 103 7 172 -10 221 -54 72 -65 72 -69 77 -670 3 -524 4
-533 23 -533 20 0 20 7 17 548 -3 490 -5 552 -21 591 -44 112 -108 152 -257
159 -132 6 -192 -12 -259 -77 l-51 -50 0 230 c0 222 -1 229 -20 229 -20 0 -20
-7 -20 -815z"/>
<path d="M13240 5145 c0 -801 0 -815 20 -815 19 0 19 12 22 528 l3 527 26 55
c50 107 125 150 258 150 124 0 197 -37 235 -119 20 -45 21 -59 24 -593 3 -540
3 -548 23 -548 19 0 20 6 17 558 l-3 558 -30 60 c-26 51 -38 63 -89 88 -49 26
-72 31 -151 34 -132 6 -191 -13 -261 -83 l-54 -54 0 235 c0 227 -1 234 -20
234 -20 0 -20 -7 -20 -815z"/>
<path d="M14492 5849 c-66 -86 -79 -109 -63 -109 12 0 51 39 110 110 86 104
90 110 64 109 -24 0 -41 -18 -111 -110z"/>
<path d="M15550 5145 c0 -808 0 -815 20 -815 20 0 20 7 20 815 0 808 0 815
-20 815 -20 0 -20 -7 -20 -815z"/>
<path d="M2510 5095 c0 -758 0 -765 20 -765 20 0 20 7 20 390 l0 390 325 0
325 0 0 -390 c0 -383 0 -390 20 -390 20 0 20 7 20 765 0 758 0 765 -20 765
-20 0 -20 -7 -20 -355 l0 -355 -322 2 -323 3 -3 353 c-2 344 -3 352 -22 352
-20 0 -20 -8 -20 -765z"/>
<path d="M12140 5095 c0 -757 0 -765 20 -765 20 0 20 8 22 727 l3 728 315
-727 c308 -711 316 -728 343 -728 l27 0 0 765 c0 758 0 765 -20 765 -20 0 -20
-7 -20 -722 -1 -703 -1 -722 -19 -688 -10 19 -152 344 -316 723 -295 679 -298
687 -326 687 l-29 0 0 -765z"/>
<path d="M14750 5745 c0 -44 -23 -90 -53 -107 -14 -8 -73 -12 -172 -13 -164 0
-202 -10 -258 -63 -79 -74 -91 -178 -84 -687 5 -375 11 -415 67 -479 51 -57
118 -80 240 -80 136 0 183 14 241 73 79 78 82 95 87 531 5 491 -7 573 -94 649
l-34 30 30 16 c42 22 70 71 70 123 0 35 -3 42 -20 42 -16 0 -20 -7 -20 -35z
m-133 -167 c64 -16 117 -71 140 -145 16 -52 18 -102 18 -453 0 -449 -4 -487
-62 -550 -48 -53 -107 -74 -212 -74 -132 0 -203 31 -244 107 -22 41 -22 49
-25 482 -2 302 1 454 8 485 20 81 71 129 157 149 55 13 167 13 220 -1z"/>
<path d="M3785 5621 c-41 -11 -107 -45 -127 -68 -10 -10 -28 -41 -40 -68 -23
-50 -23 -52 -23 -515 l0 -465 27 -57 c20 -44 38 -65 73 -87 117 -74 353 -62
443 22 32 30 57 81 71 145 7 34 11 193 11 443 0 477 -4 506 -84 585 -41 42
-61 54 -104 63 -58 12 -200 13 -247 2z m242 -46 c59 -17 113 -70 134 -131 11
-31 14 -130 14 -464 0 -480 -2 -497 -66 -561 -48 -48 -99 -62 -214 -62 -137 0
-206 38 -242 132 -16 42 -18 89 -18 491 l0 445 23 48 c25 50 82 92 145 107 55
13 171 11 224 -5z"/>
<path d="M4690 5611 c-72 -26 -124 -81 -145 -154 -14 -48 -16 -116 -13 -509 3
-496 3 -496 65 -560 48 -50 116 -71 233 -72 58 0 124 5 148 12 52 16 107 62
133 114 19 37 38 174 39 276 0 38 -2 42 -25 42 -25 0 -25 0 -25 -98 0 -226
-73 -308 -272 -306 -93 1 -156 23 -196 69 -56 63 -57 72 -57 540 0 237 4 447
8 468 5 24 24 56 49 83 53 58 118 78 232 72 177 -10 235 -87 236 -310 0 -98 0
-98 25 -98 23 0 25 4 25 43 -1 23 -5 86 -9 139 -12 129 -42 188 -120 232 -50
27 -64 30 -165 33 -91 3 -121 0 -166 -16z"/>
<path d="M6047 5616 c-54 -20 -115 -64 -135 -98 -9 -15 -20 -28 -24 -28 -4 0
-8 27 -8 60 0 53 -2 60 -20 60 -20 0 -20 -7 -20 -640 0 -626 0 -640 19 -640
19 0 20 14 24 528 4 578 3 570 65 643 50 58 101 81 197 87 141 8 219 -28 262
-123 17 -37 18 -85 21 -587 l3 -548 24 0 25 0 0 468 c-1 257 -5 511 -9 564
-12 129 -42 188 -120 231 -49 28 -64 31 -160 34 -74 2 -117 -1 -144 -11z"/>
<path d="M7948 5617 c-128 -37 -178 -128 -178 -325 0 -93 2 -103 18 -100 15 3
18 20 23 123 7 155 30 204 114 248 33 18 58 21 145 22 92 0 111 -3 155 -25 70
-35 88 -71 88 -173 0 -135 -39 -186 -224 -292 -167 -96 -190 -110 -237 -151
-26 -23 -61 -66 -77 -95 -30 -53 -30 -56 -30 -204 0 -135 2 -154 22 -191 61
-114 205 -162 354 -118 82 24 141 73 182 149 16 29 16 28 17 -62 0 -87 1 -93
21 -93 20 0 20 1 17 573 -3 502 -5 576 -19 607 -21 44 -54 75 -104 96 -53 22
-224 29 -287 11z m372 -639 c0 -351 -21 -467 -97 -540 -63 -60 -97 -72 -198
-73 -116 0 -172 24 -212 93 -24 40 -27 58 -31 157 -8 217 24 264 293 423 94
55 183 114 199 131 17 17 33 31 38 31 4 0 8 -100 8 -222z"/>
<path d="M8893 5616 c-54 -18 -98 -50 -134 -99 l-29 -40 0 66 c0 60 -2 67 -20
67 -20 0 -20 -7 -20 -640 0 -630 0 -640 20 -640 19 0 19 11 22 533 l3 532 28
57 c51 103 140 145 287 135 87 -6 147 -31 178 -74 46 -67 46 -69 50 -640 3
-535 3 -543 23 -543 20 0 20 6 17 558 -3 540 -4 558 -24 602 -27 59 -81 106
-146 125 -62 18 -197 19 -255 1z"/>
<path d="M16113 5616 c-101 -25 -151 -88 -173 -216 -16 -92 -10 -204 11 -208
14 -2 17 15 22 115 6 102 10 125 34 172 23 44 38 60 78 80 44 23 61 26 155 26
183 -1 240 -49 240 -200 0 -132 -51 -192 -270 -315 -158 -89 -246 -165 -281
-242 -21 -47 -24 -67 -23 -183 0 -118 2 -135 26 -187 46 -100 147 -148 285
-135 106 10 183 54 234 135 l29 46 0 -87 c0 -80 2 -87 20 -87 20 0 20 7 20
558 0 306 -5 575 -10 596 -22 96 -89 135 -241 141 -68 3 -122 0 -156 -9z m352
-1017 c-18 -87 -54 -151 -106 -189 -89 -64 -266 -65 -341 -2 -54 46 -71 100
-72 237 0 105 3 126 22 167 34 69 101 125 276 228 87 51 175 110 195 129 l36
36 3 -267 c2 -207 -1 -284 -13 -339z"/>
<path d="M16860 5072 c0 -601 1 -610 66 -682 52 -58 107 -75 239 -75 129 0
171 17 243 93 l42 45 0 -62 c0 -54 2 -61 20 -61 20 0 20 7 20 640 0 628 0 640
-20 640 -19 0 -19 -12 -22 -527 l-3 -528 -24 -52 c-49 -109 -148 -161 -287
-150 -132 10 -199 60 -223 167 -7 28 -11 248 -11 568 0 515 0 522 -20 522 -20
0 -20 -7 -20 -538z"/>
<path d="M10960 4980 c0 -19 7 -20 235 -20 228 0 235 1 235 20 0 19 -7 20
-235 20 -228 0 -235 -1 -235 -20z"/>
<path d="M3888 4193 c-12 -3 -18 -14 -18 -34 0 -28 2 -30 33 -27 24 2 33 8 35
25 4 24 -22 42 -50 36z"/>
</g>
</svg>
